<svg width="87" height="97" viewBox="0 0 87 97" fill="none" xmlns="http://www.w3.org/2000/svg">
<path fill-rule="evenodd" clip-rule="evenodd" d="M82.6064 34.309C83.4707 34.2191 84.2852 33.8612 84.9361 33.2855C85.5869 32.7097 86.0415 31.9449 86.2361 31.098C86.4307 30.2511 86.3557 29.3645 86.0215 28.5624C85.6874 27.7603 85.1108 27.0827 84.3725 26.6244L44.0337 1.53011C43.2468 1.04057 42.3193 0.827278 41.3977 0.923976C40.4761 1.02067 39.613 1.42184 38.9449 2.06404L4.69316 34.9846C4.06603 35.5861 3.64263 36.3686 3.48224 37.2226C3.32185 38.0767 3.43248 38.9595 3.79865 39.7475C4.16483 40.5356 4.76822 41.1894 5.52439 41.6175C6.28056 42.0457 7.15167 42.2267 8.0158 42.1352L24.5501 40.4004C26.4247 62.7393 23.3172 73.8911 19.2818 79.7525C15.4465 85.3248 10.4022 86.8009 5.11726 88.3399L3.75557 88.7384C2.78175 89.0286 1.94754 89.6646 1.40987 90.5268C0.872202 91.3891 0.668146 92.4181 0.836099 93.4202C1.00405 94.4224 1.53244 95.3286 2.32183 95.9685C3.11123 96.6083 4.10722 96.9376 5.12245 96.8944C16.5843 96.4082 32.9736 93.6119 45.9331 84.1203C58.5113 74.9075 67.3378 59.7663 65.9395 36.0577L82.6064 34.309Z" fill="#56559C"/>
</svg>
