<svg width="24" height="16" viewBox="0 0 24 16" fill="none" xmlns="http://www.w3.org/2000/svg">
<path fill-rule="evenodd" clip-rule="evenodd" d="M22.7312 0.468802C23.0312 0.768846 23.1997 1.17574 23.1997 1.6C23.1997 2.02426 23.0312 2.43116 22.7312 2.7312L9.93124 15.5312C9.6312 15.8312 9.2243 15.9997 8.80004 15.9997C8.37578 15.9997 7.96888 15.8312 7.66884 15.5312L1.26884 9.1312C0.977388 8.82944 0.816117 8.42528 0.819763 8.00576C0.823408 7.58625 0.991678 7.18495 1.28833 6.88829C1.58498 6.59164 1.98628 6.42337 2.4058 6.41972C2.82531 6.41608 3.22948 6.57735 3.53124 6.8688L8.80004 12.1376L20.4688 0.468802C20.7689 0.168848 21.1758 0.000343323 21.6 0.000343323C22.0243 0.000343323 22.4312 0.168848 22.7312 0.468802Z" fill="white"/>
</svg>
