<svg width="50" height="50" viewBox="0 0 50 50" fill="none" xmlns="http://www.w3.org/2000/svg">
<path d="M30.4922 18.6748C29.4328 18.6748 28.6485 18.942 28.0344 19.2795C27.936 18.9295 27.6125 18.6732 27.2313 18.7498H22.5688C22.1078 18.6732 21.7344 19.0467 21.8766 19.5311V36.7186C21.7344 37.1561 22.1078 37.5311 22.5688 37.4998H27.2313C27.6922 37.5311 28.0656 37.1561 28.0656 36.6951L28.0641 26.3076C28.0625 26.3029 28.0453 25.8061 28.3594 25.4639C28.611 25.192 29.0438 25.0529 29.6422 25.0529C30.6391 25.0529 31.0828 25.4607 31.2485 26.3732V36.6951C31.0844 37.1561 31.4578 37.5311 31.9188 37.4998H36.8328C37.2938 37.5311 37.6672 37.1561 37.5016 36.6951V26.0264C37.6657 20.6014 33.8016 18.6748 30.4922 18.6748ZM35.9969 35.9373H32.7532V26.3732C32.7532 24.5279 31.561 23.3842 29.6438 23.3842C28.5594 23.3842 27.7156 23.7029 27.1344 24.3311C26.3266 25.2061 26.3891 26.3154 26.5625 26.5623V35.9373H23.4031V20.3436H26.3969V20.8686C26.3957 21.025 26.4386 21.1785 26.5207 21.3116C26.6029 21.4447 26.7209 21.5519 26.8612 21.621C27.0016 21.69 27.1586 21.718 27.3141 21.7018C27.4697 21.6857 27.6175 21.6259 27.7406 21.5295L27.9594 21.3607C28.5922 20.8623 29.2469 20.3451 30.4938 20.3451C31.7844 20.3451 35.9985 20.7561 35.9985 26.0279V35.9373H35.9969Z" fill="white"/>
<path d="M17.1875 10.8843C15.4344 10.8843 14.0094 12.3093 14.0094 14.0624C14.0094 15.8155 15.4344 17.2405 17.1875 17.2405C18.9407 17.2405 20.3657 15.8155 20.3657 14.0624C20.3657 12.3093 18.9407 10.8843 17.1875 10.8843ZM17.1875 15.5718C16.3563 15.5718 15.6782 14.8937 15.6782 14.0624C15.6782 13.2312 16.3563 12.553 17.1875 12.553C18.0188 12.553 18.6969 13.2312 18.6969 14.0624C18.6969 14.8937 18.0188 15.5718 17.1875 15.5718Z" fill="white"/>
<path d="M19.4187 18.6733H14.7812C14.3203 18.6733 13.9469 19.0468 14.0625 19.5312V36.7187C13.9469 37.1562 14.3203 37.5312 14.7812 37.4999H19.4187C19.8797 37.5312 20.2531 37.1562 20.2531 36.6952V19.5077C20.2531 19.2864 20.1652 19.0742 20.0087 18.9177C19.8522 18.7612 19.64 18.6733 19.4187 18.6733ZM18.75 35.9374H15.6156V20.3437H18.75V35.9374Z" fill="white"/>
<path d="M25 -0.0532227C11.1844 -0.0532227 -0.0531006 11.1843 -0.0531006 24.9999C-0.0531006 38.8155 11.1844 50.053 25 50.053C38.8157 50.053 50.0532 38.8155 50.0532 24.9999C50.0532 11.1843 38.8157 -0.0532227 25 -0.0532227ZM25 48.3843C12.1063 48.3843 1.61565 37.8937 1.61565 24.9999C1.61565 12.1062 12.1063 1.61553 25 1.61553C37.8938 1.61553 48.3844 12.1062 48.3844 24.9999C48.3844 37.8937 37.8938 48.3843 25 48.3843Z" fill="white"/>
</svg>
